<?xml version="1.0" encoding="UTF-8" standalone="no"?>
<svg
   xmlns:dc="http://purl.org/dc/elements/1.1/"
   xmlns:cc="http://creativecommons.org/ns#"
   xmlns:rdf="http://www.w3.org/1999/02/22-rdf-syntax-ns#"
   xmlns:svg="http://www.w3.org/2000/svg"
   xmlns="http://www.w3.org/2000/svg"
   id="svg3777"
   version="1.1"
   viewBox="0 0 141 143"
   height="143"
   width="141">
  <metadata
     id="metadata3783">
    <rdf:RDF>
      <cc:Work
         rdf:about="">
        <dc:format>image/svg+xml</dc:format>
        <dc:type
           rdf:resource="http://purl.org/dc/dcmitype/StillImage" />
        <dc:title></dc:title>
      </cc:Work>
    </rdf:RDF>
  </metadata>
  <defs
     id="defs3781" />
  <path
     d="m 4.53,70.795 a 1.334,1.334 0 0 1 -1.282,-1.383 1.339,1.339 0 0 1 1.37,-1.279 c 0.707,0.022 1.292,0.646 1.268,1.366 -0.022,0.72 -0.633,1.32 -1.355,1.296 m 1.68,-13.877 -4.243,0.741 3.617,2.323 z M 7.484,56.706 6.668,60.688 8.89,62.108 8.577,63.635 0.134,58.053 0.42,56.656 0.437,56.567 10.4,54.73 10.09,56.254 7.485,56.707 Z m 3.903,-8.688 1.263,0.437 -1.713,4.944 -0.063,0.173 -8.89,-3.067 0.435,-1.26 7.627,2.63 z M 10.95,36.447 c -0.826,-0.201 -1.673,0.341 -2.135,1.171 -0.443,0.795 -0.325,1.647 0.221,2.132 0.479,0.386 1.208,0.412 1.795,-0.288 0.378,-0.41 0.655,-0.77 0.951,-1.136 1.018,-1.23 2.318,-1.552 3.579,-0.854 1.538,0.852 1.649,2.693 0.792,4.226 -0.83,1.49 -2.431,2.492 -3.906,1.822 l 0.481,-1.272 c 0.818,0.302 1.781,-0.343 2.282,-1.243 0.546,-0.98 0.37,-1.937 -0.318,-2.307 -0.453,-0.247 -1.105,-0.19 -1.651,0.356 -0.347,0.35 -0.804,0.9 -1.218,1.394 -0.902,1.025 -2.05,1.294 -3.266,0.622 -1.386,-0.77 -1.754,-2.588 -0.924,-4.076 0.866,-1.557 2.39,-2.253 3.656,-1.886 l -0.34,1.34 z m 8.228,-7.685 c -1.65,-1.258 -3.545,-1.111 -4.703,0.396 -1.126,1.466 -0.772,3.35 0.867,4.6 1.605,1.227 3.526,1.05 4.645,-0.407 1.158,-1.507 0.85,-3.322 -0.809,-4.59 m 0.893,-1.16 c 2.258,1.723 2.664,4.495 1.04,6.609 -1.584,2.064 -4.458,2.398 -6.662,0.71 -2.229,-1.699 -2.696,-4.516 -1.088,-6.61 1.625,-2.116 4.472,-2.418 6.71,-0.71 m 7.336,-0.65 -6.414,-6.84 0.974,-0.91 6.414,6.84 z m 8.581,-6.954 -1.056,0.79 -8.075,-2.777 4.245,5.64 -1.059,0.792 -5.632,-7.488 1.06,-0.792 8.07,2.782 -4.241,-5.645 1.056,-0.79 z m 2.926,-5.587 a 1.222,1.222 0 0 1 0.53,-1.646 1.235,1.235 0 0 1 1.644,0.516 c 0.3,0.576 0.065,1.322 -0.523,1.63 -0.59,0.304 -1.345,0.086 -1.65,-0.5 M 51.063,9.028 48.31,5.725 l -0.224,4.282 2.977,-0.98 z m 0.816,0.993 -3.87,1.275 -0.13,2.628 -1.483,0.487 0.66,-10.078 1.355,-0.449 0.089,-0.026 6.549,7.704 -1.48,0.487 z m 9.556,-0.932 0.246,1.31 -5.148,0.955 -0.18,0.034 -1.724,-9.204 1.314,-0.245 1.476,7.898 z m 6.022,-6.115 c -0.281,-0.804 -1.2,-1.217 -2.154,-1.15 -0.91,0.062 -1.564,0.624 -1.673,1.346 -0.062,0.615 0.313,1.239 1.223,1.35 0.551,0.093 1.006,0.126 1.473,0.174 1.593,0.18 2.575,1.092 2.676,2.53 0.12,1.754 -1.371,2.851 -3.128,2.971 -1.704,0.12 -3.42,-0.674 -3.666,-2.275 l 1.336,-0.293 c 0.19,0.85 1.259,1.303 2.289,1.234 C 66.957,8.784 67.669,8.112 67.602,7.332 67.566,6.821 67.156,6.305 66.403,6.144 65.917,6.046 65.207,5.964 64.564,5.89 63.207,5.69 62.354,4.877 62.259,3.492 62.148,1.91 63.48,0.612 65.185,0.494 c 1.786,-0.124 3.204,0.77 3.582,2.03 z M 78.494,5.678 C 78.654,3.614 77.5,2.11 75.602,1.961 73.756,1.819 72.364,3.137 72.206,5.189 c -0.16,2.011 1.037,3.52 2.868,3.662 1.9,0.15 3.26,-1.097 3.42,-3.173 m 1.461,0.113 c -0.219,2.827 -2.325,4.673 -4.989,4.467 -2.597,-0.202 -4.44,-2.422 -4.226,-5.182 0.219,-2.789 2.334,-4.714 4.97,-4.51 2.662,0.21 4.467,2.427 4.245,5.225 m 4.53,5.77 2.27,-9.1 1.297,0.323 -2.267,9.099 z m 10.502,3.385 -1.242,-0.454 -2.058,-8.268 -2.435,6.624 -1.24,-0.454 3.23,-8.79 1.242,0.455 2.058,8.266 2.435,-6.625 1.242,0.456 z m 6.308,-0.551 a 1.2227437,1.2227437 0 1 1 2.128,1.205 c -0.32,0.561 -1.076,0.768 -1.654,0.444 -0.572,-0.327 -0.801,-1.078 -0.474,-1.65 m 11.155,7.257 1.286,-4.102 -3.733,2.141 z m -0.394,1.226 -3.177,-2.548 -2.29,1.317 -1.215,-0.977 8.852,-4.932 1.115,0.896 0.072,0.06 -2.929,9.679 -1.218,-0.975 z m 5.981,7.467 -0.967,0.922 -3.623,-3.785 -0.127,-0.135 6.804,-6.475 0.924,0.965 -5.836,5.554 z m 8.383,1.68 c 0.52,-0.672 0.367,-1.663 -0.206,-2.424 -0.549,-0.727 -1.377,-0.967 -2.046,-0.664 -0.549,0.28 -0.866,0.936 -0.462,1.754 0.221,0.514 0.438,0.912 0.655,1.327 0.715,1.43 0.483,2.748 -0.672,3.612 -1.405,1.056 -3.138,0.41 -4.2,-0.993 -1.027,-1.361 -1.294,-3.228 -0.084,-4.301 l 0.972,0.955 c -0.608,0.622 -0.409,1.764 0.212,2.585 0.677,0.897 1.63,1.123 2.246,0.645 0.414,-0.31 0.623,-0.93 0.344,-1.648 -0.18,-0.461 -0.496,-1.097 -0.785,-1.678 -0.57,-1.238 -0.351,-2.395 0.76,-3.228 1.27,-0.955 3.084,-0.55 4.114,0.809 1.074,1.425 1.095,3.098 0.243,4.1 l -1.09,-0.85 z m 3.762,10.716 c 1.826,-0.989 2.464,-2.777 1.554,-4.45 -0.883,-1.624 -2.753,-2.07 -4.568,-1.089 -1.78,0.967 -2.402,2.789 -1.526,4.402 0.91,1.672 2.698,2.133 4.54,1.137 m 0.7,1.289 c -2.503,1.356 -5.208,0.593 -6.484,-1.75 -1.244,-2.29 -0.378,-5.042 2.067,-6.364 2.467,-1.335 5.245,-0.615 6.506,1.708 1.276,2.348 0.39,5.064 -2.09,6.406 m -2.418,6.893 8.891,-3.043 0.433,1.262 -8.89,3.041 z m 2.849,10.664 -0.289,-1.289 5.865,-6.213 -6.917,1.548 -0.288,-1.291 9.179,-2.052 0.289,1.288 -5.868,6.214 6.917,-1.548 0.289,1.291 z m 4.468,10.913 c 0.739,0.026 1.31,0.65 1.283,1.382 a 1.339,1.339 0 0 1 -1.37,1.28 c -0.707,-0.022 -1.292,-0.646 -1.268,-1.366 0.022,-0.72 0.633,-1.32 1.355,-1.296 m -1.68,13.877 4.243,-0.742 -3.618,-2.323 z m -1.274,0.211 0.816,-3.981 -2.221,-1.421 0.313,-1.527 8.443,5.583 -0.287,1.397 -0.017,0.088 -9.961,1.839 0.31,-1.524 z m -3.902,8.688 -1.264,-0.437 1.714,-4.944 0.063,-0.172 8.89,3.067 -0.435,1.26 -7.627,-2.63 z m 2.28,8.269 c 0.837,0.156 1.653,-0.43 2.07,-1.282 0.402,-0.82 0.24,-1.663 -0.332,-2.116 -0.501,-0.36 -1.23,-0.35 -1.781,0.381 -0.357,0.43 -0.612,0.804 -0.889,1.183 -0.95,1.287 -2.23,1.678 -3.53,1.047 -1.582,-0.768 -1.788,-2.604 -1.016,-4.181 0.749,-1.531 2.294,-2.616 3.805,-2.028 l -0.414,1.296 c -0.833,-0.254 -1.762,0.44 -2.214,1.363 -0.491,1.008 -0.262,1.956 0.443,2.287 0.464,0.224 1.114,0.13 1.63,-0.441 0.329,-0.37 0.755,-0.941 1.14,-1.46 0.847,-1.07 1.98,-1.399 3.232,-0.794 1.425,0.696 1.89,2.494 1.141,4.023 -0.784,1.6 -2.267,2.378 -3.55,2.076 z m -7.841,8.18 c 1.711,1.17 3.598,0.928 4.676,-0.639 1.05,-1.521 0.597,-3.384 -1.104,-4.55 -1.668,-1.143 -3.577,-0.864 -4.619,0.645 -1.078,1.568 -0.679,3.363 1.047,4.544 m -0.833,1.207 c -2.344,-1.606 -2.895,-4.354 -1.381,-6.55 1.475,-2.14 4.327,-2.62 6.619,-1.053 2.312,1.584 2.926,4.372 1.43,6.55 -1.515,2.195 -4.345,2.644 -6.668,1.053 m -7.273,1.047 6.777,6.502 -0.924,0.96 -6.782,-6.5 z m -8.191,7.423 1.013,-0.85 8.229,2.33 -4.561,-5.406 1.015,-0.848 6.051,7.174 -1.016,0.85 -8.226,-2.33 4.558,5.406 -1.013,0.85 z m -2.473,5.989 c 0.373,0.635 0.151,1.449 -0.484,1.823 a 1.346,1.346 0 0 1 -1.82,-0.468 c -0.358,-0.607 -0.146,-1.437 0.477,-1.804 0.621,-0.365 1.459,-0.17 1.827,0.448 m -12.293,5.874 2.917,3.16 0.01,-4.288 z m -0.864,-0.953 3.8,-1.466 v -2.63 l 1.454,-0.565 -0.149,10.104 -1.333,0.514 -0.087,0.033 -6.931,-7.37 1.456,-0.562 z m -9.512,1.412 -0.31,-1.298 5.104,-1.217 0.178,-0.043 2.193,9.124 -1.302,0.312 -1.88,-7.828 z m -5.742,6.385 c 0.32,0.784 1.254,1.154 2.202,1.044 0.907,-0.106 1.53,-0.696 1.605,-1.424 0.034,-0.616 -0.37,-1.219 -1.282,-1.284 -0.556,-0.07 -1.011,-0.084 -1.48,-0.108 -1.599,-0.105 -2.62,-0.97 -2.79,-2.397 -0.205,-1.745 1.232,-2.909 2.982,-3.113 1.694,-0.2 3.444,0.514 3.764,2.098 l -1.319,0.352 c -0.228,-0.835 -1.319,-1.24 -2.342,-1.12 -1.119,0.13 -1.795,0.832 -1.692,1.605 0.06,0.511 0.494,1.006 1.252,1.13 0.489,0.075 1.2,0.125 1.848,0.169 1.36,0.134 2.25,0.907 2.414,2.284 0.186,1.572 -1.083,2.928 -2.78,3.128 -1.773,0.208 -3.232,-0.617 -3.667,-1.856 z m -11.078,-2.154 c -0.057,2.068 1.172,3.516 3.076,3.566 1.851,0.053 3.175,-1.334 3.23,-3.394 0.058,-2.016 -1.213,-3.463 -3.05,-3.513 -1.903,-0.053 -3.198,1.257 -3.256,3.34 m -1.465,-0.043 c 0.077,-2.832 2.089,-4.783 4.76,-4.706 2.604,0.072 4.556,2.196 4.477,4.966 -0.077,2.793 -2.092,4.824 -4.734,4.75 -2.672,-0.075 -4.585,-2.2 -4.503,-5.01 m -4.852,-5.556 -1.825,9.204 -1.314,-0.256 1.827,-9.204 z m -10.65,-2.875 1.261,0.396 2.453,8.17 2.122,-6.74 1.262,0.396 -2.816,8.945 -1.261,-0.396 -2.453,-8.172 -2.123,6.741 -1.26,-0.396 z m -6.227,0.907 a 1.227,1.227 0 0 1 -1.645,0.535 1.226,1.226 0 0 1 -0.54,-1.632 c 0.292,-0.576 1.035,-0.823 1.63,-0.528 0.59,0.297 0.854,1.037 0.556,1.625 m -11.521,-6.715 -1.081,4.164 3.624,-2.323 -2.544,-1.841 z m 0.334,-1.246 3.302,2.393 2.222,-1.43 1.263,0.917 -8.604,5.364 -1.16,-0.84 -0.075,-0.053 2.453,-9.821 1.263,0.914 z m -6.335,-7.159 0.92,-0.965 3.795,3.596 0.135,0.127 -6.467,6.787 -0.968,-0.917 5.545,-5.822 z m -8.516,-1.355 c -0.486,0.694 -0.286,1.676 0.323,2.408 0.582,0.7 1.418,0.9 2.067,0.566 0.537,-0.307 0.823,-0.972 0.38,-1.771 -0.242,-0.502 -0.48,-0.888 -0.714,-1.294 -0.782,-1.392 -0.61,-2.716 0.498,-3.633 1.353,-1.121 3.112,-0.555 4.236,0.792 1.088,1.31 1.444,3.16 0.286,4.286 l -1.013,-0.905 c 0.578,-0.65 0.323,-1.778 -0.334,-2.57 -0.718,-0.862 -1.678,-1.044 -2.27,-0.535 -0.397,0.326 -0.578,0.955 -0.267,1.658 0.202,0.449 0.549,1.07 0.864,1.635 0.628,1.212 0.464,2.376 -0.604,3.259 -1.22,1.01 -3.052,0.691 -4.14,-0.617 -1.14,-1.37 -1.24,-3.036 -0.44,-4.075 l 1.128,0.797 z m -4.237,-10.462 c -1.776,1.075 -2.328,2.892 -1.34,4.517 0.962,1.579 2.851,1.934 4.613,0.864 1.733,-1.047 2.262,-2.897 1.307,-4.464 -0.99,-1.625 -2.794,-1.997 -4.58,-0.917 m -0.763,-1.25 c 2.43,-1.474 5.167,-0.845 6.554,1.432 1.355,2.223 0.62,5.014 -1.753,6.452 -2.4,1.452 -5.2,0.864 -6.577,-1.39 -1.387,-2.282 -0.633,-5.035 1.776,-6.494 M 12.93,95.186 4.197,98.671 3.698,97.433 12.435,93.948 Z M 9.546,84.64 l 0.352,1.271 -5.54,6.48 6.818,-1.881 0.351,1.274 -9.05,2.496 -0.35,-1.274 5.542,-6.48 -6.818,1.881 -0.354,-1.272 z"
     id="path3769"
     style="fill:#1d1d1b;fill-rule:evenodd" />
</svg>
