<?xml version="1.0" encoding="UTF-8" standalone="no"?>
<svg
   xmlns:dc="http://purl.org/dc/elements/1.1/"
   xmlns:cc="http://creativecommons.org/ns#"
   xmlns:rdf="http://www.w3.org/1999/02/22-rdf-syntax-ns#"
   xmlns:svg="http://www.w3.org/2000/svg"
   xmlns="http://www.w3.org/2000/svg"
   id="svg3874"
   version="1.1"
   viewBox="0 0 141 143"
   height="143"
   width="141">
  <metadata
     id="metadata3880">
    <rdf:RDF>
      <cc:Work
         rdf:about="">
        <dc:format>image/svg+xml</dc:format>
        <dc:type
           rdf:resource="http://purl.org/dc/dcmitype/StillImage" />
        <dc:title></dc:title>
      </cc:Work>
    </rdf:RDF>
  </metadata>
  <defs
     id="defs3878" />
  <g
     id="g3870"
     style="fill:#1d1d1b;fill-rule:evenodd">
    <path
       d="m 42.19,58.361 c -0.75,-0.555 -1.888,-0.552 -3.263,-0.02 l -5.241,1.998 1.543,7.326 5.261,-2.04 c 1.549,-0.599 2.492,-1.472 2.907,-2.585 0.64,-1.667 0.024,-3.904 -1.207,-4.679 m 4.099,5.488 c -0.515,1.118 -1.27,2.223 -2.281,3.089 l 6.025,7.821 -3.36,1.305 -5.584,-7.454 -5.232,2.03 1.873,8.89 -2.982,1.157 -4.695,-22.227 2.98,-1.155 5.418,-2.07 c 2.223,-0.858 4.284,-0.912 5.8,-0.01 2.495,1.37 3.4,5.692 2.038,8.624 m 13.972,-2.436 c -0.21,-0.562 -0.81,-1.347 -1.365,-1.741 -0.928,-0.859 -2.284,-1.076 -3.688,-0.53 -2.045,0.791 -3.4,3.144 -3.305,5.51 z m 3.088,0.089 0.261,1.218 -11.106,4.307 c 0.972,1.93 2.982,2.807 4.968,2.04 1.754,-0.683 2.919,-2.116 3.185,-3.71 l 2.824,0.022 c -0.41,2.973 -2.475,5.568 -5.34,6.678 -3.856,1.497 -7.867,-0.844 -8.854,-5.202 -1.075,-4.766 1.388,-9.14 5.244,-10.637 2.926,-1.132 5.814,-0.323 7.457,2.053 0.93,1.3 1.36,3.23 1.36,3.23 z M 75.66,57.068 c -0.583,-2.857 -2.61,-4.574 -4.999,-4.058 -2.208,0.451 -4.172,2.874 -3.483,6.534 0.484,2.59 2.582,4.758 5.364,3.878 2.67,-0.832 3.602,-3.663 3.119,-6.354 z m 1.334,-9.016 3.166,15.027 -2.982,1.154 -0.398,-1.842 -0.11,0.416 c -0.674,2.02 -2.936,3.747 -5.36,3.905 -3.602,0.316 -6.306,-2.568 -7.012,-6.189 -0.904,-4.319 0.93,-8.756 5.388,-10.08 1.823,-0.504 3.432,-0.146 4.73,0.71 l -0.404,-1.947 z m 13.964,0.24 c -0.87,-1.322 -2.343,-2.107 -4.475,-1.28 -2.66,1.033 -3.79,3.976 -3.129,6.768 0.618,2.773 2.753,4.418 5.413,3.387 2.073,-0.807 3,-2.519 3.168,-3.838 l 2.748,0.086 c -0.364,2.918 -2.404,5.407 -5.269,6.517 -3.945,1.53 -7.994,-0.661 -8.984,-5.017 -1.167,-5.104 1.434,-9.196 5.381,-10.725 3.039,-1.18 5.97,-0.35 7.535,2.092 z m 9.232,2.312 c 0.245,1.26 0.807,1.244 1.57,0.948 l 1.59,-0.585 0.59,2.888 -2.875,1.083 c -2.044,0.792 -3.263,-0.293 -3.773,-2.703 l -1.776,-8.456 -2.487,0.965 -0.58,-2.687 2.483,-0.962 a 444.077,444.077 0 0 0 -1.004,-4.76 l 2.978,-1.157 c 0.031,0.261 0.459,2.262 1.004,4.76 l 2.867,-1.11 0.555,2.697 -2.863,1.112 a 646.135,646.135 0 0 0 1.722,7.967 m -49.058,28.82 4.697,22.227 -2.924,1.135 -14.1,-12.654 3.522,16.756 -2.924,1.132 -4.695,-22.227 2.922,-1.132 14.1,12.651 -3.52,-16.753 z m 16.887,9.742 c -0.58,-2.854 -2.61,-4.574 -4.997,-4.058 -2.208,0.451 -4.174,2.874 -3.485,6.534 0.483,2.593 2.581,4.76 5.366,3.88 2.667,-0.831 3.603,-3.665 3.117,-6.356 z m 1.334,-9.016 3.168,15.03 -2.982,1.154 -0.4,-1.843 -0.11,0.414 c -0.672,2.02 -2.934,3.747 -5.355,3.905 -3.605,0.313 -6.309,-2.568 -7.015,-6.186 -0.906,-4.322 0.929,-8.757 5.389,-10.084 1.82,-0.503 3.431,-0.143 4.728,0.71 l -0.405,-1.946 z m 9.036,8.047 c 0.244,1.258 0.806,1.243 1.568,0.947 l 1.587,-0.584 0.594,2.888 -2.875,1.08 C 77.22,93.32 76.001,92.238 75.49,89.825 l -1.775,-8.456 -2.484,0.965 -0.587,-2.686 2.487,-0.962 a 343.774,343.774 0 0 0 -1.004,-4.759 l 2.98,-1.156 c 0.03,0.261 0.457,2.262 1.001,4.758 l 2.868,-1.11 0.554,2.696 -2.862,1.112 c 0.715,3.38 1.463,6.848 1.722,7.97 M 84.08,74.438 87.25,89.47 84.326,90.602 81.16,75.57 84.082,74.438 Z M 79.335,70.59 c -0.266,-1.219 0.476,-2.622 1.617,-3.066 1.111,-0.43 2.308,0.256 2.56,1.445 0.28,1.182 -0.447,2.612 -1.53,3.034 -1.17,0.452 -2.366,-0.234 -2.647,-1.413 z m 19.749,-1.97 -2.476,17.215 -2.775,1.08 -0.03,0.01 -9.125,-12.718 2.98,-1.156 6.732,9.684 1.741,-12.97 z m 12.426,2.055 c -0.213,-0.56 -0.814,-1.342 -1.366,-1.736 -0.93,-0.861 -2.286,-1.078 -3.688,-0.533 -2.047,0.792 -3.403,3.142 -3.308,5.51 l 8.361,-3.24 z m 3.086,0.091 0.262,1.221 -11.106,4.305 c 0.967,1.934 2.98,2.81 4.963,2.04 1.756,-0.681 2.921,-2.117 3.187,-3.708 l 2.826,0.02 c -0.412,2.97 -2.476,5.567 -5.339,6.677 -3.86,1.498 -7.872,-0.84 -8.854,-5.2 -1.077,-4.768 1.387,-9.14 5.242,-10.638 2.926,-1.132 5.815,-0.323 7.454,2.055 0.93,1.297 1.365,3.228 1.365,3.228 z"
       id="path3868" />
  </g>
</svg>
